# Blender 5.1.0
# www.blender.org
mtllib PUBGBox.mtl
o PUBG_Box
v 0.907841 -0.907841 -0.000000
v -0.907841 -0.907841 -0.000000
v 0.907841 0.907841 0.000000
v -0.907841 0.907841 0.000000
v 0.964996 -0.964997 1.987782
v 0.964996 0.964996 1.987782
v -0.964996 -0.964997 1.987782
v -0.964996 0.964996 1.987782
v -0.919900 -0.919900 1.443644
v 0.907841 -0.907841 -0.000000
v 0.919900 -0.919900 1.443644
v -0.907841 -0.907841 -0.000000
v 0.919900 -0.919900 1.443644
v 0.907841 -0.907841 -0.000000
v 0.907841 0.907841 0.000000
v 0.919900 0.919899 1.443645
v 0.907841 0.907841 0.000000
v -0.907841 0.907841 0.000000
v 0.919900 0.919899 1.443645
v -0.919900 0.919899 1.443645
v -0.919900 -0.919900 1.443644
v -0.907841 0.907841 0.000000
v -0.907841 -0.907841 -0.000000
v -0.919900 0.919899 1.443645
v -1.000000 -1.000001 1.937777
v 1.000000 -1.000000 1.937777
v -0.964996 -0.964997 1.987782
v 0.964996 -0.964997 1.987782
v 1.000000 -1.000000 1.937777
v 1.000000 0.999999 1.937778
v 0.964996 -0.964997 1.987782
v 0.964996 0.964996 1.987782
v 1.000000 0.999999 1.937778
v -1.000000 0.999999 1.937778
v 0.964996 0.964996 1.987782
v -0.964996 0.964996 1.987782
v -0.964996 -0.964997 1.987782
v -1.000000 0.999999 1.937778
v -1.000000 -1.000001 1.937777
v -0.964996 0.964996 1.987782
vn -0.0000 -0.0000 -1.0000
vn 0.3684 -0.3684 0.8536
vn 0.3684 0.3684 0.8536
vn -0.3684 -0.3684 0.8536
vn -0.3684 0.3684 0.8536
vn -0.0000 -0.9961 -0.0883
vn -0.0000 -1.0000 -0.0084
vn 0.9961 -0.0000 -0.0883
vn 1.0000 -0.0000 -0.0084
vn -0.0000 1.0000 -0.0084
vn -0.0000 0.9961 -0.0883
vn -0.9961 -0.0000 -0.0883
vn -1.0000 -0.0000 -0.0084
vn -0.6882 -0.6881 0.2298
vn 0.6882 -0.6882 0.2297
vn 0.6882 0.6882 0.2297
vn 0.6882 0.6881 0.2298
vn -0.6882 0.6882 0.2297
vn -0.6881 0.6882 0.2298
vn -0.6882 -0.6882 0.2297
vt 0.599813 0.340144
vt 0.584568 0.340144
vt 0.599813 0.363887
vt 0.584568 0.363887
vt 0.424953 0.848317
vt 0.441552 0.211459
vt 0.053539 0.822236
vt 0.067572 0.172225
vt 0.576688 0.351018
vt 0.936554 0.876314
vt 0.928295 0.353774
vt 0.573096 0.876240
vt 0.576688 0.351018
vt 0.554952 0.172423
vt 0.934948 0.173822
vt 0.563818 0.153963
vt 0.929508 0.149423
s 0
usemtl PUBGBox
f 1/1/1 2/2/1 3/3/1
f 2/2/1 4/4/1 3/3/1
s 1
f 5/5/2 6/6/3 7/7/4
f 7/7/4 6/6/3 8/8/5
f 9/9/6 10/10/7 11/11/6
f 10/10/7 9/9/6 12/12/7
f 13/13/8 14/12/9 15/10/9
f 13/13/8 15/10/9 16/11/8
f 17/12/10 18/10/10 19/13/11
f 18/10/10 20/11/11 19/13/11
f 21/11/12 22/12/13 23/10/13
f 22/12/13 21/11/12 24/13/12
f 25/14/14 26/15/15 27/16/4
f 27/16/4 26/15/15 28/17/2
f 29/14/15 30/15/16 31/16/2
f 31/16/2 30/15/16 32/17/3
f 33/14/17 34/15/18 35/16/3
f 35/16/3 34/15/18 36/17/5
f 37/17/4 38/14/19 39/15/20
f 38/14/19 37/17/4 40/16/5
f 26/15/15 25/14/14 9/9/6
f 26/15/15 9/9/6 11/11/6
f 29/14/15 16/11/8 30/15/16
f 16/11/8 29/14/15 13/13/8
f 19/13/11 20/11/11 34/15/18
f 19/13/11 34/15/18 33/14/17
f 24/13/12 21/11/12 39/15/20
f 39/15/20 38/14/19 24/13/12
