# Blender 5.1.0
# www.blender.org
mtllib Chicken.mtl
o Chicken
v -0.300000 0.600000 -0.250000
v -0.300000 0.600000 0.350000
v 0.300000 0.600000 0.350000
v 0.300000 0.600000 -0.250000
v -0.300000 -0.200000 -0.250000
v 0.300000 -0.200000 -0.250000
v 0.300000 -0.200000 0.350000
v -0.300000 -0.200000 0.350000
v -0.300000 0.600000 -0.250000
v 0.300000 0.600000 -0.250000
v 0.300000 -0.200000 -0.250000
v -0.300000 -0.200000 -0.250000
v 0.300000 0.600000 -0.250000
v 0.300000 0.600000 0.350000
v 0.300000 -0.200000 0.350000
v 0.300000 -0.200000 -0.250000
v 0.300000 0.600000 0.350000
v -0.300000 0.600000 0.350000
v -0.300000 -0.200000 0.350000
v 0.300000 -0.200000 0.350000
v -0.300000 0.600000 0.350000
v -0.300000 0.600000 -0.250000
v -0.300000 -0.200000 -0.250000
v -0.300000 -0.200000 0.350000
v 0.300000 0.500000 -0.050000
v 0.300000 0.500000 0.350000
v 0.400000 0.500000 0.350000
v 0.400000 0.500000 -0.050000
v 0.300000 -0.100000 -0.050000
v 0.400000 -0.100000 -0.050000
v 0.400000 -0.100000 0.350000
v 0.300000 -0.100000 0.350000
v 0.300000 0.500000 -0.050000
v 0.400000 0.500000 -0.050000
v 0.400000 -0.100000 -0.050000
v 0.300000 -0.100000 -0.050000
v 0.400000 0.500000 -0.050000
v 0.400000 0.500000 0.350000
v 0.400000 -0.100000 0.350000
v 0.400000 -0.100000 -0.050000
v 0.400000 0.500000 0.350000
v 0.300000 0.500000 0.350000
v 0.300000 -0.100000 0.350000
v 0.400000 -0.100000 0.350000
v 0.300000 0.500000 0.350000
v 0.300000 0.500000 -0.050000
v 0.300000 -0.100000 -0.050000
v 0.300000 -0.100000 0.350000
v -0.100000 -0.500000 0.150000
v 0.100000 -0.500000 0.150000
v 0.100000 -0.500000 0.350000
v -0.100000 -0.500000 0.350000
v -0.100000 -0.400000 0.150000
v 0.100000 -0.400000 0.150000
v 0.100000 -0.500000 0.150000
v -0.100000 -0.500000 0.150000
v 0.100000 -0.400000 0.150000
v 0.100000 -0.400000 0.350000
v 0.100000 -0.500000 0.350000
v 0.100000 -0.500000 0.150000
v -0.100000 -0.400000 0.350000
v -0.100000 -0.400000 0.150000
v -0.100000 -0.500000 0.150000
v -0.100000 -0.500000 0.350000
v -0.200000 -0.400000 0.350000
v -0.200000 -0.400000 0.550000
v 0.200000 -0.400000 0.550000
v 0.200000 -0.400000 0.350000
v -0.200000 -0.600000 0.350000
v 0.200000 -0.600000 0.350000
v 0.200000 -0.600000 0.550000
v -0.200000 -0.600000 0.550000
v -0.200000 -0.400000 0.350000
v 0.200000 -0.400000 0.350000
v 0.200000 -0.600000 0.350000
v -0.200000 -0.600000 0.350000
v 0.200000 -0.400000 0.350000
v 0.200000 -0.400000 0.550000
v 0.200000 -0.600000 0.550000
v 0.200000 -0.600000 0.350000
v 0.200000 -0.400000 0.550000
v -0.200000 -0.400000 0.550000
v -0.200000 -0.600000 0.550000
v 0.200000 -0.600000 0.550000
v -0.200000 -0.400000 0.550000
v -0.200000 -0.400000 0.350000
v -0.200000 -0.600000 0.350000
v -0.200000 -0.600000 0.550000
v -0.200000 -0.100000 0.150000
v -0.200000 -0.100000 0.750000
v 0.200000 -0.100000 0.750000
v 0.200000 -0.100000 0.150000
v -0.200000 -0.400000 0.150000
v 0.200000 -0.400000 0.150000
v 0.200000 -0.400000 0.750000
v -0.200000 -0.400000 0.750000
v -0.200000 -0.100000 0.150000
v 0.200000 -0.100000 0.150000
v 0.200000 -0.400000 0.150000
v -0.200000 -0.400000 0.150000
v 0.200000 -0.100000 0.150000
v 0.200000 -0.100000 0.750000
v 0.200000 -0.400000 0.750000
v 0.200000 -0.400000 0.150000
v 0.200000 -0.100000 0.750000
v -0.200000 -0.100000 0.750000
v -0.200000 -0.400000 0.750000
v 0.200000 -0.400000 0.750000
v -0.200000 -0.100000 0.750000
v -0.200000 -0.100000 0.150000
v -0.200000 -0.400000 0.150000
v -0.200000 -0.400000 0.750000
v -0.300000 0.500000 -0.050000
v -0.400000 0.500000 -0.050000
v -0.400000 0.500000 0.350000
v -0.300000 0.500000 0.350000
v -0.300000 -0.100000 -0.050000
v -0.300000 -0.100000 0.350000
v -0.400000 -0.100000 0.350000
v -0.400000 -0.100000 -0.050000
v -0.300000 0.500000 -0.050000
v -0.300000 -0.100000 -0.050000
v -0.400000 -0.100000 -0.050000
v -0.400000 0.500000 -0.050000
v -0.400000 0.500000 -0.050000
v -0.400000 -0.100000 -0.050000
v -0.400000 -0.100000 0.350000
v -0.400000 0.500000 0.350000
v -0.400000 0.500000 0.350000
v -0.400000 -0.100000 0.350000
v -0.300000 -0.100000 0.350000
v -0.300000 0.500000 0.350000
v -0.300000 0.500000 0.350000
v -0.300000 -0.100000 0.350000
v -0.300000 -0.100000 -0.050000
v -0.300000 0.500000 -0.050000
v -0.200000 0.200000 -0.250000
v -0.200000 0.200000 -0.750000
v -0.100000 0.200000 -0.750000
v -0.100000 0.200000 -0.250000
v -0.200000 0.200000 -0.750000
v -0.200000 0.000000 -0.750000
v -0.100000 0.000000 -0.750000
v -0.100000 0.200000 -0.750000
v -0.200000 0.200000 -0.750000
v -0.300000 0.200000 -0.750000
v -0.300000 0.000000 -0.750000
v -0.200000 0.000000 -0.750000
v -0.100000 0.000000 -0.750000
v 0.000000 0.000000 -0.750000
v 0.000000 0.200000 -0.750000
v -0.100000 0.200000 -0.750000
v -0.200000 0.000000 -0.750000
v -0.200000 -0.100000 -0.750000
v -0.100000 -0.100000 -0.750000
v -0.100000 0.000000 -0.750000
v 0.100000 0.200000 -0.750000
v 0.200000 0.200000 -0.750000
v 0.200000 0.200000 -0.250000
v 0.100000 0.200000 -0.250000
v 0.200000 0.200000 -0.750000
v 0.100000 0.200000 -0.750000
v 0.100000 -0.000000 -0.750000
v 0.200000 -0.000000 -0.750000
v 0.200000 0.200000 -0.750000
v 0.200000 -0.000000 -0.750000
v 0.300000 -0.000000 -0.750000
v 0.300000 0.200000 -0.750000
v 0.100000 -0.000000 -0.750000
v 0.100000 0.200000 -0.750000
v 0.000000 0.200000 -0.750000
v 0.000000 0.000000 -0.750000
v 0.200000 -0.000000 -0.750000
v 0.100000 -0.000000 -0.750000
v 0.100000 -0.100000 -0.750000
v 0.200000 -0.100000 -0.750000
vn -0.0000 1.0000 -0.0000
vn -0.0000 -1.0000 -0.0000
vn -0.0000 -0.0000 -1.0000
vn 1.0000 -0.0000 -0.0000
vn -0.0000 -0.0000 1.0000
vn -1.0000 -0.0000 -0.0000
vt 0.280953 0.234328
vt 0.187500 0.234328
vt 0.187500 0.140660
vt 0.280953 0.140660
vt 0.093937 0.234328
vt 0.093937 0.140660
vt 0.280953 0.359335
vt 0.375000 0.359335
vt 0.375000 0.234328
vt 0.000000 0.359335
vt 0.093929 0.359335
vt 0.093929 0.234328
vt 0.000000 0.234328
vt 0.187500 0.359335
vt 0.500000 0.359119
vt 0.500000 0.300000
vt 0.468407 0.300000
vt 0.468407 0.359119
vt 0.359648 0.359119
vt 0.375273 0.359119
vt 0.375273 0.300000
vt 0.359648 0.300000
vt 0.500000 0.296861
vt 0.487522 0.296861
vt 0.487500 0.203235
vt 0.500000 0.203235
vt 0.468407 0.296861
vt 0.468407 0.203235
vt 0.593548 0.359119
vt 0.593548 0.300000
vt 0.250000 0.125000
vt 0.312500 0.125000
vt 0.312500 0.093731
vt 0.250000 0.093731
vt 0.250000 0.062500
vt 0.312500 0.062500
vt 0.343515 0.125000
vt 0.343515 0.093731
vt 0.218678 0.093731
vt 0.218678 0.125000
vt 0.400000 0.062500
vt 0.400000 0.031238
vt 0.343781 0.031238
vt 0.343781 0.062500
vt 0.312500 0.031238
vt 0.250000 0.031238
vt 0.312500 0.000000
vt 0.375000 0.000000
vt 0.375000 0.031238
vt 0.250000 0.000000
vt 0.218839 0.031238
vt 0.218839 0.062500
vt 0.218563 0.140557
vt 0.218563 0.047125
vt 0.156437 0.047125
vt 0.156437 0.140557
vt 0.046929 0.140557
vt 0.109429 0.140557
vt 0.109429 0.047125
vt 0.046929 0.047125
vt 0.691551 1.437364
vt 0.976122 1.437364
vt 0.976122 1.223935
vt 0.691551 1.223935
vt 0.109500 0.000000
vt 0.046852 0.000000
vt 0.109544 0.047125
vt 0.000000 0.047125
vt 0.000000 0.140557
vt 0.575000 0.050000
vt 0.575000 0.125000
vt 0.562500 0.125000
vt 0.562500 0.050000
vt 0.531222 0.046833
vt 0.531222 0.015611
vt 0.515611 0.015611
vt 0.515611 0.046833
vt 0.546833 0.046833
vt 0.546833 0.015611
vt 0.500000 0.015611
vt 0.500000 0.046833
vt 0.531222 0.000000
vt 0.515611 0.000000
s 1
usemtl ChickenBaseColor
f 1/1/1 2/2/1 3/3/1
f 1/1/1 3/3/1 4/4/1
f 5/5/2 6/2/2 7/3/2
f 5/5/2 7/3/2 8/6/2
f 9/7/3 10/8/3 11/9/3
f 9/7/3 11/9/3 12/1/3
f 13/10/4 14/11/4 15/12/4
f 13/10/4 15/12/4 16/13/4
f 17/11/5 18/14/5 19/2/5
f 17/11/5 19/2/5 20/12/5
f 21/14/6 22/7/6 23/1/6
f 21/14/6 23/1/6 24/2/6
f 25/15/1 26/16/1 27/17/1
f 25/15/1 27/17/1 28/18/1
f 29/19/2 30/20/2 31/21/2
f 29/19/2 31/21/2 32/22/2
f 33/23/3 34/24/3 35/25/3
f 33/23/3 35/25/3 36/26/3
f 37/18/4 38/17/4 39/21/4
f 37/18/4 39/21/4 40/20/4
f 41/27/5 42/24/5 43/25/5
f 41/27/5 43/25/5 44/28/5
f 45/16/6 46/15/6 47/29/6
f 45/16/6 47/29/6 48/30/6
f 49/31/2 50/32/2 51/33/2
f 49/31/2 51/33/2 52/34/2
f 53/35/3 54/36/3 55/33/3
f 53/35/3 55/33/3 56/34/3
f 57/37/4 58/38/4 59/33/4
f 57/37/4 59/33/4 60/32/4
f 61/39/6 62/40/6 63/31/6
f 61/39/6 63/31/6 64/34/6
f 65/41/1 66/42/1 67/43/1
f 65/41/1 67/43/1 68/44/1
f 69/35/2 70/36/2 71/45/2
f 69/35/2 71/45/2 72/46/2
f 73/47/3 74/48/3 75/49/3
f 73/47/3 75/49/3 76/45/3
f 77/44/4 78/43/4 79/45/4
f 77/44/4 79/45/4 80/36/4
f 81/47/5 82/50/5 83/46/5
f 81/47/5 83/46/5 84/45/5
f 85/51/6 86/52/6 87/35/6
f 85/51/6 87/35/6 88/46/6
f 89/53/1 90/54/1 91/55/1
f 89/53/1 91/55/1 92/56/1
f 93/57/2 94/58/2 95/59/2
f 93/57/2 95/59/2 96/60/2
f 97/61/3 98/62/3 99/63/3
f 97/61/3 99/63/3 100/64/3
f 101/56/4 102/55/4 103/59/4
f 101/56/4 103/59/4 104/58/4
f 105/65/5 106/66/5 107/60/5
f 105/65/5 107/60/5 108/67/5
f 109/68/6 110/69/6 111/57/6
f 109/68/6 111/57/6 112/60/6
f 113/15/1 114/18/1 115/17/1
f 113/15/1 115/17/1 116/16/1
f 117/19/2 118/22/2 119/21/2
f 117/19/2 119/21/2 120/20/2
f 121/23/3 122/26/3 123/25/3
f 121/23/3 123/25/3 124/24/3
f 125/18/6 126/20/6 127/21/6
f 125/18/6 127/21/6 128/17/6
f 129/27/5 130/28/5 131/25/5
f 129/27/5 131/25/5 132/24/5
f 133/16/4 134/30/4 135/29/4
f 133/16/4 135/29/4 136/15/4
f 137/70/2 138/71/2 139/72/2
f 137/70/2 139/72/2 140/73/2
f 141/74/5 142/75/5 143/76/5
f 141/74/5 143/76/5 144/77/5
f 145/74/5 146/78/5 147/79/5
f 145/74/5 147/79/5 148/75/5
f 149/76/5 150/80/5 151/81/5
f 149/76/5 151/81/5 152/77/5
f 153/75/5 154/82/5 155/83/5
f 153/75/5 155/83/5 156/76/5
f 157/72/2 158/71/2 159/70/2
f 157/72/2 159/70/2 160/73/2
f 161/74/5 162/77/5 163/76/5
f 161/74/5 163/76/5 164/75/5
f 165/74/5 166/75/5 167/79/5
f 165/74/5 167/79/5 168/78/5
f 169/76/5 170/77/5 171/81/5
f 169/76/5 171/81/5 172/80/5
f 173/75/5 174/76/5 175/83/5
f 173/75/5 175/83/5 176/82/5
